<svg width="58" height="43" viewBox="0 0 58 43" fill="none" xmlns="http://www.w3.org/2000/svg">
<path fill-rule="evenodd" clip-rule="evenodd" d="M46.7119 31.7754L52.5089 42.4128H40.9484L36.4785 33.9263C39.7489 33.068 43.2247 32.3232 46.7119 31.7754ZM24.173 31.2117L23.5613 32.4296C22.4428 33.2576 21.4609 34.0248 20.8154 34.5782L20.3991 34.9371L21.3848 36.7676L18.5538 42.4128H6.6377L10.2709 35.6445C15.2806 33.6886 19.8698 32.31 24.173 31.2117ZM29.394 0L44.4211 27.5729C41.4126 28.1072 38.3246 28.7803 35.2843 29.5678C36.2446 29.0025 37.0834 28.5359 37.5696 28.2816L37.986 28.0662L37.6091 24.04L36.8706 24.1537C35.1813 24.4229 33.4892 24.7018 31.7806 25.0072L29.4791 20.6336L26.7998 25.9749C22.6057 26.8636 18.2407 27.9951 13.5158 29.5969L29.394 0Z" fill="#E3E3E3"/>
<path fill-rule="evenodd" clip-rule="evenodd" d="M58 26.8603C49.7369 26.9232 39.0881 28.9751 30.5454 31.6104C32.7517 30.2404 36.0247 28.2961 37.2434 27.665L36.979 24.8323C25.9929 26.5851 14.873 28.7807 0 35.873L1.42227 38.7655C12.3598 33.462 21.3128 31.066 29.4361 29.2384C26.7891 30.8656 22.9234 33.6893 21.2824 35.0982L22.8232 37.9698C31.3507 33.9017 46.1386 30.1896 57.8359 30.1088L58 26.8603Z" fill="#869691"/>
</svg>
